PathFileType	4	(X/Y/Z)	AB05\squats_2.trc
DataRate	CameraRate	NumFrames	NumMarkers	Units	OrigDataRate	OrigDataStartFrame	OrigNumFrames
200.000000	200.000000	4	35	mm	200.000000	294	336
Frame#	Time	C7			LSHO			STRN			LASI			RASI			LPSI			RPSI			LGTR			RGTR			LTHC			LTHL			LTHR			LKNE			LMKNE			LSHC			LSHL			LSHR			LANK			LMANK			LMT1			LMT5			LCAL			RTHC			RTHL			RTHR			RKNE			RMKNE			RSHC			RSHL			RSHR			RANK			RMANK			RMT1			RMT5			RCAL			
		X1	Y1	Z1	X2	Y2	Z2	X3	Y3	Z3	X4	Y4	Z4	X5	Y5	Z5	X6	Y6	Z6	X7	Y7	Z7	X8	Y8	Z8	X9	Y9	Z9	X10	Y10	Z10	X11	Y11	Z11	X12	Y12	Z12	X13	Y13	Z13	X14	Y14	Z14	X15	Y15	Z15	X16	Y16	Z16	X17	Y17	Z17	X18	Y18	Z18	X19	Y19	Z19	X20	Y20	Z20	X21	Y21	Z21	X22	Y22	Z22	X23	Y23	Z23	X24	Y24	Z24	X25	Y25	Z25	X26	Y26	Z26	X27	Y27	Z27	X28	Y28	Z28	X29	Y29	Z29	X30	Y30	Z30	X31	Y31	Z31	X32	Y32	Z32	X33	Y33	Z33	X34	Y34	Z34	X35	Y35	Z35	

295	2.38	-2259.735187159522	1433.459206838467	2511.336850592247	-2168.729901980168	1376.30147368413	2371.605803153958	-2159.977781259489	1304.591109259142	2511.473882839562	-2378.005476099657	924.7333912312411	2372.896801293329	-2362.680890448826	921.9584416353375	2637.790059175195	-2535.112728235063	1004.783080832034	2450.136572447704	-2514.639404097233	1016.856559287629	2569.083913042802	-2447.734560882438	851.9903588839592	2311.822739754465	-2469.354132880692	865.8471130003722	2688.934410460728	-2285.39457595298	782.5039076900187	2358.251280969013	-2463.035393466448	708.4377004445744	2356.234544537851	-2358.712687211379	769.9132125167882	2301.107290401403	-2236.478178380796	514.1989006469624	2282.122462611112	-2219.704155769346	506.6311477292358	2404.996129163238	-2333.461142103389	393.9722525510904	2283.45900205937	-2254.66734560704	248.4178596431258	2316.548511802548	-2256.854144312388	333.325896826141	2388.396373083496	-2358.259040002377	108.2099012327958	2287.270455762563	-2326.874380725409	110.6254042678599	2380.989155390595	-2199.982978355491	66.37997426986146	2348.977016212731	-2249.746872208555	54.66220795539486	2234.260686539416	-2421.1107702066	71.75869652010144	2346.438504089899	-2447.088067260963	692.6627374592524	2656.076974302844	-2346.648509355675	757.7170379453037	2717.270601287458	-2271.096289665405	771.4083751063695	2641.747100875363	-2237.384303539573	507.7254435228668	2728.532371769388	-2199.630781347586	504.9804651683577	2604.243299019445	-2252.842363787766	261.4102816946085	2697.727454948578	-2304.619215175416	414.2154625895127	2730.319973450659	-2241.483642396926	365.5641775833598	2622.037219003186	-2364.874414772744	104.4409379831446	2711.313279966706	-2325.855398932994	108.7784330043886	2621.365782149358	-2209.499928615247	64.39892335910443	2655.192256488544	-2245.525933208259	61.78970532784423	2762.161675922971	-2429.912375800603	73.44399155532646	2656.542249975138	
296	2.385	-2261.45825213662	1439.14065959251	2511.244004184013	-2170.784178884542	1382.815611674107	2371.129559422144	-2160.933507343279	1311.085095365609	2511.210038035222	-2375.266789367729	928.6609429925865	2372.781031841096	-2359.921567887162	926.0972365717029	2637.675014119332	-2532.746953377365	1008.074977360847	2449.977063385421	-2512.414128652841	1020.359610346818	2568.907117537612	-2445.183224377648	855.0227785100798	2312.109599366797	-2466.605160094617	869.3318977258141	2688.426192068112	-2283.32126333992	783.5374152501239	2358.149487677499	-2461.654595667777	711.5896494899255	2356.41969307524	-2356.830154525963	771.8411210370889	2301.098847001139	-2237.479398372989	514.697945121362	2282.384694495713	-2220.730507611152	507.0408545677954	2405.22526182431	-2334.471098444547	394.2009913661058	2283.717449363924	-2255.1916837859	248.7832387900931	2316.599379150615	-2257.621756392327	333.6591125774812	2388.51211919143	-2358.291945543536	108.2311572367082	2287.254939726784	-2326.876963505476	110.6603560771275	2380.945614489079	-2199.983437986359	66.38967639961628	2348.960257452894	-2249.746893016484	54.65104894428787	2234.244001406158	-2421.111099720104	71.77926994439844	2346.420247276627	-2445.912517591575	695.9649362724625	2655.824276119064	-2344.801082201737	759.8464086302341	2717.041278517808	-2269.109135978763	772.5282893298051	2641.443893248147	-2238.428583559613	508.3707777176943	2728.056632907375	-2200.717726925389	505.3770250962266	2603.833601560279	-2253.427274120662	261.8372067080407	2697.574048416475	-2305.743012403466	414.6479822578731	2729.851368690654	-2242.371470673126	365.9490813417387	2621.719951517449	-2364.94984628664	104.5160917544563	2711.336569815494	-2325.867244238692	108.8146887174743	2621.420276189534	-2209.508801370692	64.41836312369706	2655.217837159078	-2245.5266782184	61.78148132209724	2762.181571162492	-2429.910544300874	73.46506166584065	2656.564576183778	
297	2.39	-2263.165659730043	1444.72764670911	2511.145439917048	-2172.847521891	1389.223121621496	2370.649615379165	-2161.893989851233	1317.485971634891	2510.943430775418	-2372.517360247469	932.5417705781958	2372.658992182158	-2357.159604203616	930.1826153983277	2637.55689201589	-2530.36747425705	1011.321558725431	2449.816865149171	-2510.176199925091	1023.813844390081	2568.730828104039	-2442.625905507595	858.0265013261745	2312.384199850064	-2463.858905994049	872.7816418721966	2687.932689376163	-2281.276794944377	784.543702675467	2358.056099973348	-2460.276449600362	714.723023850407	2356.601818336856	-2354.959353578528	773.7453854943868	2301.091997964477	-2238.514701520614	515.2027295585267	2282.658586030713	-2221.789479123581	507.4559162773413	2405.467107697079	-2335.508862305666	394.4333025511259	2283.989887101194	-2255.7351309555	249.1548011896314	2316.651879457388	-2258.408163909985	333.9959531275344	2388.633926817019	-2358.328361587945	108.2516579548978	2287.236172754448	-2326.881174814383	110.6958767473603	2380.900037957927	-2199.985482061484	66.39951394832684	2348.94247667567	-2249.748240424463	54.63911005221536	2234.226160041844	-2421.112578710496	71.79873338457577	2346.401600395432	-2444.748006973442	699.2571954284053	2655.57150284376	-2342.975014183563	761.9587731978921	2716.809044926176	-2267.162059148561	773.6225375717563	2641.129657366306	-2239.515259625437	509.0266435090685	2727.575451208631	-2201.843595257895	505.7838283836307	2603.419972832848	-2254.03441041617	262.2742356854442	2697.424313715451	-2306.902370255633	415.0851253798933	2729.37959700641	-2243.287419549389	366.3414200571441	2621.403701266306	-2365.030173503909	104.5899063828995	2711.360370395437	-2325.881610821954	108.851636568813	2621.480534815004	-2209.520103767706	64.43828550012049	2655.245385619562	-2245.527055347658	61.77347576300924	2762.203303515018	-2429.910025634063	73.4849133282828	2656.589537462389	
298	2.395	-2264.856756226075	1450.216565572913	2511.041168021	-2174.917661338885	1395.519034473183	2370.166514967424	-2162.858767936766	1323.789382086927	2510.674444437982	-2369.758826363528	936.3727812847621	2372.530528952957	-2354.396402241375	934.2124925398568	2637.436290696554	-2527.975976097377	1014.52028852998	2449.655999102939	-2507.926221636778	1027.216639961746	2568.555277290406	-2440.064852153047	860.9989621750327	2312.646130994732	-2461.117609461748	876.1937692114553	2687.454094617838	-2279.263196565335	785.5223996946564	2357.971939716545	-2458.902173553771	717.8356844219138	2356.782497811061	-2353.102297884654	775.6247797567783	2301.087258006634	-2239.584135373136	515.7129639538841	2282.945671007461	-2222.880826876864	507.875959047104	2405.723025655463	-2336.574242767303	394.6690029252861	2284.277914198568	-2256.298003445751	249.532087665112	2316.70661769393	-2259.213382089471	334.3354671851646	2388.76273038484	-2358.368503428496	108.2713499385131	2287.214247959721	-2326.887132474777	110.73189124069	2380.852658111813	-2199.989229826037	66.40949215399648	2348.923848895447	-2249.750904407883	54.62654197449406	2234.207234322623	-2421.11533482086	71.81693443330703	2346.382565468231	-2443.594891055194	702.5375436795554	2655.316833968048	-2341.171191103721	764.0522990966419	2716.572699131509	-2265.256315495894	774.6913382494895	2640.803052125786	-2240.6431612634	509.6925835305252	2727.085601459619	-2203.00919056121	506.2006248127508	2602.998625534591	-2254.663769849622	262.7210159368323	2697.276524843633	-2308.096513719591	415.5264505713815	2728.902156746049	-2244.231865748579	366.7400988732095	2621.085963336476	-2365.115389627584	104.6622035491192	2711.38444981049	-2325.898634908453	108.8890692109562	2621.546096249958	-2209.533705603303	64.45860323587678	2655.274498155098	-2245.527183162122	61.76583482141983	2762.226500826563	-2429.911106759115	73.5034155028012	2656.617240916791	
